<?xml version="1.0" encoding="UTF-8"?>
<svg width="60px" height="60px" viewBox="0 0 60 60" version="1.1" xmlns="http://www.w3.org/2000/svg" xmlns:xlink="http://www.w3.org/1999/xlink">
    <!-- Generator: Sketch 54.1 (76490) - https://sketchapp.com -->
    <title>icon-capital</title>
    <desc>Created with Sketch.</desc>
    <g id="Design-latest-20190816" stroke="none" stroke-width="1" fill="none" fill-rule="evenodd">
        <g id="edm-design-o3" transform="translate(-679.000000, -1153.000000)" fill="#156DB3" fill-rule="nonzero">
            <g id="Group" transform="translate(202.000000, 0.000000)">
                <g id="5.-Why-" transform="translate(0.000000, 1063.000000)">
                    <g id="2-columns-1-copy-7" transform="translate(411.000000, 90.000000)">
                        <g id="product-01" transform="translate(0.615385, 0.000000)">
                            <g id="icon-capital" transform="translate(65.384615, 0.000000)">
                                <path d="M30,0 C13.4314575,-1.01453063e-15 2.02906125e-15,13.4314575 0,30 C-2.02906125e-15,46.5685425 13.4314575,60 30,60 C46.5685425,60 60,46.5685425 60,30 C60,22.0435053 56.8392948,14.4128879 51.2132034,8.78679656 C45.5871121,3.16070521 37.9564947,4.87194788e-16 30,0 L30,0 Z M51.25,24.375 C51.386325,25.1395647 50.877058,25.8698872 50.1125,26.00625 L44.58125,27 C44.0797278,27.1032347 43.5617303,26.925712 43.2289552,26.5365556 C42.8961802,26.1473992 42.8012285,25.6081219 42.9810723,25.1287076 C43.1609161,24.6492933 43.5871282,24.3055215 44.09375,24.23125 L49.6375,23.25625 C50.3901701,23.1269393 51.1076059,23.6246951 51.25,24.375 L51.25,24.375 Z M39.30625,16.875 L43.28125,12.9 C43.6362827,12.5438509 44.1543497,12.4041632 44.6403002,12.5335559 C45.1262508,12.6629487 45.5062574,13.041764 45.6371752,13.5273059 C45.7680931,14.0128478 45.6300327,14.5313509 45.275,14.8875 L41.29375,18.86875 C40.7431911,19.417583 39.851958,19.4161839 39.303125,18.865625 C38.754292,18.3150661 38.7556911,17.423833 39.30625,16.875 L39.30625,16.875 Z M28.6125,7.975 C28.6125,7.19834957 29.2420996,6.56875 30.01875,6.56875 C30.7954004,6.56875 31.425,7.19834957 31.425,7.975 L31.425,13.6 C31.425,14.3766504 30.7954004,15.00625 30.01875,15.00625 C29.2420996,15.00625 28.6125,14.3766504 28.6125,13.6 L28.6125,7.975 Z M30,18.75 C35.1776695,18.75 39.375,22.9473305 39.375,28.125 L20.625,28.125 C20.625,22.9473305 24.8223305,18.75 30,18.75 L30,18.75 Z M14.74375,12.875 C15.2927829,12.3266499 16.1822171,12.3266499 16.73125,12.875 L20.73125,16.875 C21.2003557,17.4335338 21.1645486,18.2580253 20.6487869,18.7737869 C20.1330253,19.2895486 19.3085338,19.3253557 18.75,18.85625 L14.7625,14.875 C14.2141499,14.3259671 14.2141499,13.4365329 14.7625,12.8875 L14.74375,12.875 Z M8.75,24.375 C8.88636278,23.610442 9.61668525,23.101175 10.38125,23.2375 L15.925,24.2125 C16.6702981,24.3659142 17.158372,25.0843265 17.0264241,25.8337228 C16.8944762,26.5831192 16.1903765,27.0916227 15.4375,26.98125 L9.89375,26.00625 C9.12865437,25.8697479 8.61755933,25.1408091 8.75,24.375 L8.75,24.375 Z M53.36875,33.5 L53.36875,33.5 C53.3315583,33.5286001 53.2918064,33.5537066 53.25,33.575 L47.625,36.26875 L37.975,40.9375 C37.1027406,41.4668477 36.1015643,41.7457932 35.08125,41.74375 C34.4761463,41.7413202 33.8751414,41.6443159 33.3,41.45625 L17.15625,37.7375 C16.7739166,37.6074442 16.3725942,37.5419653 15.96875,37.54375 L2.925,37.5 C2.2475048,35.057779 1.9068547,32.534445 1.91243097,29.9999764 L39.4125,30 C39.9440396,29.9973349 40.4517318,30.2204026 40.8092886,30.6137149 C41.1668453,31.0070273 41.3406613,31.5336188 41.2875,32.0625 C41.1662238,33.0391772 40.3277797,33.7670869 39.34375,33.75 L27.25,33.75 C26.7576796,33.7310583 26.3285916,34.0823741 26.25,34.56875 C26.2041977,34.8415469 26.2803826,35.120704 26.4584121,35.3324148 C26.6364417,35.5441256 26.8983898,35.6670727 27.175,35.66875 L39.4625,35.66875 C40.0229949,35.6634705 40.575529,35.5354703 41.08125,35.29375 L51.58125,30.24375 L51.6125,30.24375 C51.7041745,30.2048446 51.7980919,30.1714517 51.89375,30.14375 L52,30.14375 L52.225,30.10625 L52.5625,30.10625 L52.7875,30.14375 L52.8875,30.14375 C52.9792475,30.1684115 53.06907,30.199745 53.15625,30.2375 L53.2,30.2375 C53.5859326,30.4178561 53.8989454,30.7242559 54.0875,31.10625 C54.5101636,31.9803724 54.1955921,33.0325597 53.3625,33.53125 L53.36875,33.5 Z" id="Shape"></path>
                            </g>
                        </g>
                    </g>
                </g>
            </g>
        </g>
    </g>
</svg>