<?xml version="1.0" encoding="UTF-8"?>
<svg width="25px" height="25px" viewBox="0 0 25 25" version="1.1" xmlns="http://www.w3.org/2000/svg" xmlns:xlink="http://www.w3.org/1999/xlink">
    <!-- Generator: Sketch 54.1 (76490) - https://sketchapp.com -->
    <title>icon-fb</title>
    <desc>Created with Sketch.</desc>
    <g id="Design-latest-20190816" stroke="none" stroke-width="1" fill="none" fill-rule="evenodd">
        <g id="edm-design-o1" transform="translate(-285.000000, -3910.000000)">
            <g id="Group-3" transform="translate(202.000000, 0.000000)">
                <g id="11b.-Footer" transform="translate(0.000000, 3868.000000)">
                    <g id="Social" transform="translate(83.000000, 42.000000)">
                        <g id="social-links">
                            <g id="icon-fb">
                                <path d="M24.8,12.2851852 C24.8,19.0701518 19.2482338,24.5703704 12.4002778,24.5703704 C5.55176621,24.5703704 0,19.0701518 0,12.2851852 C0,5.50040203 5.55176621,0 12.4002778,0 C19.2482338,0 24.8,5.50040203 24.8,12.2851852" id="Fill-20" fill="#004FB6"></path>
                                <path d="M13.5068718,9.33713103 L13.5068718,8.15809521 C13.5068718,7.5836312 13.8936813,7.45000466 14.1651233,7.45000466 C14.4360025,7.45000466 15.8342945,7.45000466 15.8342945,7.45000466 L15.8342945,4.9237383 L13.5351978,4.91407407 C10.9836056,4.91407407 10.4037665,6.79841268 10.4037665,8.00439682 L10.4037665,9.33713103 L8.928,9.33713103 L8.928,12.2850923 L10.4159598,12.2850923 C10.4159598,15.6266849 10.4159598,19.6562963 10.4159598,19.6562963 L13.392067,19.6562963 C13.392067,19.6562963 13.392067,15.5861695 13.392067,12.2850923 L15.6007456,12.2850923 L15.872,9.33713103 L13.5068718,9.33713103" id="Fill-21" fill="#FFFFFE"></path>
                            </g>
                        </g>
                    </g>
                </g>
            </g>
        </g>
    </g>
</svg>