<?xml version="1.0" encoding="UTF-8"?>
<svg width="56px" height="55px" viewBox="0 0 56 55" version="1.1" xmlns="http://www.w3.org/2000/svg" xmlns:xlink="http://www.w3.org/1999/xlink">
    <!-- Generator: Sketch 54.1 (76490) - https://sketchapp.com -->
    <title>icon-capital_1</title>
    <desc>Created with Sketch.</desc>
    <g id="Design-latest-20190816" stroke="none" stroke-width="1" fill="none" fill-rule="evenodd">
        <g id="edm-design-o3" transform="translate(-291.000000, -1153.000000)">
            <g id="Group" transform="translate(202.000000, 0.000000)">
                <g id="5.-Why-" transform="translate(0.000000, 1063.000000)">
                    <g id="2-columns-1-copy-3" transform="translate(26.000000, 83.000000)">
                        <g id="product-01" transform="translate(0.615385, 0.000000)">
                            <g id="icon-capital_1" transform="translate(63.000000, 7.000000)">
                                <rect id="Rectangle" fill="#156DB3" fill-rule="nonzero" x="0" y="0" width="54.4670103" height="54.4670103"></rect>
                                <polyline id="Path" stroke="#FFFFFF" stroke-width="3" stroke-linecap="round" stroke-linejoin="round" points="8.51082474 45.9561856 17.0216495 37.4453608 23.8257732 44.2551546 30.635567 39.1463918 37.4453608 40.8474227 45.9561856 37.4453608"></polyline>
                                <path d="M17.0103093,27.1541237 C11.3735886,27.1541237 6.80412371,22.5846588 6.80412371,16.9479381 C6.80412371,11.3112175 11.3735886,6.74175258 17.0103093,6.74175258 C22.6470299,6.74175258 27.2164948,11.3112175 27.2164948,16.9479381 C27.2164948,22.5846588 22.6470299,27.1541237 17.0103093,27.1541237" id="Path" fill="#FFFFFF" fill-rule="nonzero"></path>
                                <path d="M14.4304124,18.2917526 C15.2678127,18.8680346 16.2499848,19.1980444 17.2654639,19.2443299 C17.8324742,19.2443299 18.1556701,19.085567 18.1556701,18.7680412 C18.1556701,17.6850515 13.6819588,17.8778351 13.6819588,14.8953608 C13.6819588,13.2396907 15.0768041,12.1623711 17.3164948,12.1623711 C18.5697475,12.136899 19.7750845,12.6437587 20.6335052,13.5572165 L19.2783505,15.1164948 C18.6602445,14.6339412 17.9020754,14.3652986 17.1180412,14.3510309 C16.5510309,14.3510309 16.2618557,14.5268041 16.2618557,14.8613402 C16.2618557,15.7515464 20.735567,15.6891753 20.735567,18.5752577 C20.735567,20.1628866 19.4201031,21.4103093 16.828866,21.4103093 C15.5245063,21.3810412 14.2657152,20.9249287 13.2453608,20.1118557 L14.4304124,18.2917526 Z M16.2902062,10.1608247 L18.0649485,10.1608247 L18.0649485,12.9958763 L16.2902062,12.9958763 L16.2902062,10.1608247 Z M18.0649485,20.293299 L18.0649485,23.6953608 L16.2902062,23.6953608 L16.2902062,20.293299 L18.0649485,20.293299 Z" id="Shape" fill="#156DB3" fill-rule="nonzero"></path>
                            </g>
                        </g>
                    </g>
                </g>
            </g>
        </g>
    </g>
</svg>