<?xml version="1.0" encoding="UTF-8"?>
<svg width="79px" height="79px" viewBox="0 0 79 79" version="1.1" xmlns="http://www.w3.org/2000/svg" xmlns:xlink="http://www.w3.org/1999/xlink">
    <!-- Generator: Sketch 54.1 (76490) - https://sketchapp.com -->
    <title>icon-wellthy</title>
    <desc>Created with Sketch.</desc>
    <g id="Design-latest-20190816" stroke="none" stroke-width="1" fill="none" fill-rule="evenodd">
        <g id="edm-design-o1" transform="translate(-234.000000, -1313.000000)" fill-rule="nonzero">
            <g id="Group-3" transform="translate(202.000000, 0.000000)">
                <g id="5.-Promobanner-1" transform="translate(1.000000, 1256.000000)">
                    <g id="icon-wellthy" transform="translate(30.000000, 57.000000)">
                        <g id="Group">
                            <path d="M62.4358209,1.51641791 C59.4332007,0.512946561 56.28825,0.000884082578 53.1223881,1.82441127e-15 C48.5746833,0.023121446 44.1592753,1.53266265 40.5492537,4.29850746 C36.9253892,1.52436221 32.492136,0.0144557304 27.9283582,-1.88737914e-15 C24.7585239,1.64652535e-05 21.6095054,0.512084775 18.6029851,1.51641791 C7.96720794,5.3015466 0.939243296,15.4589264 1.14626866,26.7462687 C1.14626866,33.8507463 2.93731343,40.8358209 9.97014925,48.6208955 L40.5492537,78.638806 L40.5492537,78.638806 L71.0328358,48.6328358 C78.0537313,40.8477612 79.8447761,33.9104478 79.8447761,26.7462687 C80.0588465,15.4713628 73.0527368,5.31778948 62.4358209,1.51641791" id="Path" fill="#E0DFDF"></path>
                            <path d="M40.5492537,4.29850746 C36.9287712,1.5180398 32.493316,0.00738334992 27.9283582,1.22124533e-15 C24.7585239,1.64652535e-05 21.6095054,0.512084775 18.6029851,1.51641791 C7.96720794,5.3015466 0.939243296,15.4589264 1.14626866,26.7462687 C1.14626866,33.8507463 2.93731343,40.8358209 9.97014925,48.6208955 L40.5492537,78.6507463 L40.5492537,4.29850746 Z" id="Path" fill="#F7F7F8"></path>
                        </g>
                        <g id="Group" transform="translate(11.940299, 9.552239)">
                            <path d="M52.1074627,5.82686567 C48.6545931,2.05424837 43.6988196,0.018528653 38.5910448,0.274626866 C34.798567,0.170624774 31.1507723,1.73271869 28.6089552,4.54925373 C26.0560544,1.72708343 22.3949782,0.16490787 18.5910448,0.274626866 C13.48327,0.018528653 8.52749642,2.05424837 5.07462687,5.82686567 C-2.4119403,13.4567164 -1.09850746,27.1880597 5.67164179,34.0895522 L28.6089552,57.480597 L51.5343284,34.0895522 C58.3044776,27.1880597 59.6179104,13.4567164 52.1313433,5.82686567" id="Path" fill="#1767AE"></path>
                            <path d="M28.6089552,4.54925373 C26.0560544,1.72708343 22.3949782,0.16490787 18.5910448,0.274626866 C13.48327,0.018528653 8.52749642,2.05424837 5.07462687,5.82686567 C-2.4119403,13.4686567 -1.09850746,27.1880597 5.67164179,34.0895522 L28.6089552,57.480597 L28.6089552,4.54925373 Z" id="Path" fill="#0795CB"></path>
                            <path d="M28.6089552,10.5552239 C36.522289,10.5552239 42.9373134,16.9702484 42.9373134,24.8835821 C42.9373134,32.7969158 36.522289,39.2119403 28.6089552,39.2119403 C20.6956215,39.2119403 14.280597,32.7969158 14.280597,24.8835821 C14.280597,16.9702484 20.6956215,10.5552239 28.6089552,10.5552239" id="Path" fill="#FEDA00"></path>
                            <polygon id="Path" fill="#1767AE" points="36.1791045 21.838806 31.5940299 21.838806 31.5940299 17.2656716 25.5641791 17.2656716 25.5641791 21.838806 20.9791045 21.838806 20.9791045 27.8686567 25.5641791 27.8686567 25.5641791 32.4537313 31.5940299 32.4537313 31.5940299 27.8686567 36.1791045 27.8686567"></polygon>
                        </g>
                    </g>
                </g>
            </g>
        </g>
    </g>
</svg>